<?xml version="1.0" encoding="UTF-8"?>
<svg id="_图层_1" xmlns="http://www.w3.org/2000/svg" version="1.1" viewBox="0 0 335.4 332.2">
  <!-- Generator: Adobe Illustrator 29.0.0, SVG Export Plug-In . SVG Version: 2.1.0 Build 186)  -->
  <defs>
    <style>
      .st0 {
        fill: #fff;
      }
    </style>
  </defs>
  <path d="M228.2,30.3c2.6,1.6,5.3,2.9,8.1,4.4,53.6,29.3,82.9,79.9,80.6,143.3-.1,2.9-1.9,9.9-1.4,12.1.9,3.7,10.2,9.5,13.4,12.4,1.5,1.4,6.2,5.5,6.5,7.1.5,3.3-7.9,13.2-8.6,17.4-2.7,3.9-5.5,8.1-7.9,12.2-5,8.6-10.1,17.4-15,25.9-2.2,3.9-14.3,25.3-16,27s-6.6.3-18.8-3.4c-4.2-1.3-5.2-2.5-10.1-2.5s-6.2,4.9-8,6c-37,23.1-81.5,31.6-124.9,19-18.1-5.2-32-13.7-47.3-23.4-1.5-1-2.8-3.8-4.7-2.9-2.8,1.2-8.8,3.7-12,4.8-3.8,1.3-8.4,4.1-11.5,3.9-4.5.9-9.7-14.5-13.2-17-8-15.4-17.4-30.3-25.9-45.3-2.5-4.4-9.6-15.3-10.9-19-.5-1.4-.9-3.8-.2-5.2s11.6-10.1,13.7-12.1c1.6-1.6,3.4-3.9,5.2-5.6.4-10.2-1.1-20.4-.6-30.6,2.4-50,33.5-98.5,76.8-122.4,4.2-2.3,15.9-6.4,18.3-9,.9-.9,1.4-2.1,1.7-3.3,1.8-6,0-15.1,3.3-20.5.6-1.1,1-1.4,2.7-1.5h92.7c1.8,0,3.9,1,4.3,2.2,1.3,3.9,1.3,8.2,2.1,11.8.5,2.2,1.7,7.6,2.4,9.5,1.4,3.5,3.2,3.4,5.2,4.6h0Z"/>
  <path class="st0" d="M227.2,34c2.6,1.5,5.2,2.8,7.9,4.3,52.3,28.6,80.9,77.9,78.6,139.8-.1,2.8-1.9,9.7-1.4,11.8.9,3.6,10,9.3,13.1,12.1,1.5,1.4,6.1,5.3,6.3,6.9.5,3.2-7.7,12.9-8.4,17-2.7,3.8-5.4,7.9-7.7,11.9-4.8,8.4-9.8,17-14.6,25.3-2.2,3.8-13.3,25.8-15.6,26.4-3.3.8-13.4-3-17.5-4.1-3.6-1-5.9-3.1-10.7-1.7-2.5.7-6.1,4.7-7.8,5.8-36.1,22.5-79.5,30.8-121.9,18.5-17.7-5.1-31.2-13.4-46.1-22.8-1.5-.9-3.5-3.4-5.4-3.6-3.5-.4-8.8,2.9-11.9,4-3.7,1.3-7.5,2.7-11.2,3.8-4.6-.1-9.2-12.5-11.9-15.1-7.8-15-17-29.5-25.2-44.2-2.4-4.3-9.4-15-10.6-18.6-.5-1.4-.8-3.7-.2-5.1s11.4-9.9,13.3-11.8c1.6-1.5,3.3-3.9,5-5.4.4-10-1.1-19.9-.6-29.9,2.3-48.8,32.7-96.1,74.9-119.4,4.1-2.2,15.6-6.3,17.9-8.7.8-.9,1.3-2,1.7-3.2,1.7-5.9,1.9-14,3.2-20,.3-1.2,1.4-3,2.6-3.4h90.4c1.2.3,2.8,2.4,3.2,3.6,1.2,3.8,1.2,8.7,2,12.2.5,2.2,1.9,7.6,2.6,9.4,1.4,3.4,4,3,5.9,4.2h.1Z"/>
  <path d="M55.9,280.5c-1.1.3-3.1,1-4,.4-1.1-1.5-2.3-2.9-2.9-4-9.8-15.8-20.1-33.9-29-50.1-2.5-4.6-9.2-13.3-6.7-18.3l16.5-15.7c.2-15-1.9-31.4.4-46.1,7.1-46.3,38.8-86.4,80.4-106.4,3.4-1.7,8.7-1.6,11.3-5.1l4.4-21.9,2.6-2.6h79.2c1.3.4,1.9,1.8,2.3,3,1.4,4.4,4.2,21.7,6.7,23.6s9.4,3.6,12.4,5.2c48.7,24.8,82.2,77.1,78.1,134.2-.5,6.8-4.8,15.2.3,20.4,3.7,3.7,11.2,7.8,14.7,11.9,2.8,3.3.5,6-1.2,9.3-8.6,16.6-21.3,38.6-31.3,54.5-.7,1.1-5.7,8.4-6.2,8.6-.9.2-3,0-4.9-.7-.5-.2-.9-.4-1.9-.8-3.9-1.6-11.3-3.8-14.9-4.5s-6.2.5-9.1,2.5c-2.9,1.9-5.2,4.1-8.4,6.2-48.1,31-107.5,30.8-155.3-.9-2.9-1.9-10.6-9.1-13.3-9.3-1.5-.1-2.5.8-3.9,1.1"/>
  <path class="st0" d="M174.9,74.6c.2-.6,1.7-1.8,2.6-1.8,3.1-.2,12.3,2.1,15.8,3,20,5.4,40.2,19.3,52.5,36,24.5,33.4,24.6,78.3,2.2,112.8,0,2.8,14.7,14.5,17,18,.5.7.9,1,.4,1.9l-23.5,23.1-2.5-1-17.1-16.7c-33.1,21.8-76.5,22.2-109.5,0l-19.4,17.9-22.9-22.1-.6-2.9,40.1-40.2c1.4-.2,6.3,7.7,7.8,9.3,15.3,17.2,37.3,25.6,60.3,22,2.9-.4,20.6-5.1,20.6-7.8l-88.1-88.1c-5.9,9.8-9.2,23.3-8.6,34.8.2,2.9,2.6,12.2,1.9,13.9l-23.4,23.2c-1.2.2-1.8-1.2-2.3-2-2.1-3.5-4.8-13.3-5.7-17.6-10.9-50.9,20.5-102.1,70.8-115,2.7-.7,12.5-2.9,14.6-2.6.7,0,1.9.7,1.9,1.2v30c-6.2,2.6-13.6,3.2-19.8,6.5-1.2.6-4.1,1.8-3.1,3.7l86.9,87c2.4-.5,6.4-12.9,7-15.6,9-38.1-15.7-74.4-54-80.6l-2.1-1.7v-28.5h.2Z"/>
</svg>