<?xml version="1.0" encoding="UTF-8"?>
<svg id="_图层_1" xmlns="http://www.w3.org/2000/svg" version="1.1" viewBox="0 0 442.1 141.2">
  <defs>
    <style>
      .st0 {
      stroke-width: 3px;
      }

      .st0, .st1, .st2 {
      fill: #fff;
      }

      .st0, .st2 {
      stroke: #000;
      stroke-miterlimit: 10;
      }

      .st2 {
      stroke-width: 2px;
      }
    </style>
  </defs>
  <g>
    <path class="st2"
      d="M384.3,92.6h17.6c14.4,0,31.1-17.2,34.8-30.4,15.4-55-59.5-78.5-82.9-34.8-1.3,2.5-4.9,10.8-4.9,13.1v95.6c8.6,1.3,17.6,1.1,26.2,0V48.7c0-.8.9-5.8,1.3-7,4.2-16.1,32.4-15,34.7,1.8,2.1,15.3-3.4,21.8-18.3,23.5-1.6.2-8.6-.6-8.6,1.1v24.4h0Z" />
    <path class="st2"
      d="M297,112h-43.9v24.8c1.4.4,2.7.7,4.1.8,12,.9,42,1.2,52.7-2.1,17.5-5.4,25.6-24.3,23.4-41.8-2.5-19.1-33.2-33.3-46-44.7-4.9-4.4-8.6-8.5-4.8-15.2.9-1.5,3.6-4.2,6.3-4.2h39.4c.9-3.5,1.7-21.9-.5-23.3-1-.6-2.4-.6-3.6-.7-11.2-.9-40.2-1-50.3,2.2-17.9,5.8-25.9,27.8-19.2,44.8,8.4,21.4,33.6,27.6,46.9,42.3,5.6,6.2,4.2,15.7-4.4,17.2h-.1Z" />
    <path class="st2"
      d="M234.4,4.9c-3.6-.3-7.7-.4-11.4-.3-21.8.3-53.4-3.5-61.9,23.3-7.2,22.5,5.8,36.7,22.4,49.2,7.2,5.4,39.7,21.9,23.6,32.7-.5.4-2.9,1.7-3.9,1.5h-43.1v24.8c1.4.4,2.7.7,4.1.8,12.1.9,41.6,1.2,52.5-2.3,14.8-4.8,22.5-19.9,23-34.8.8-22.6-26.9-35.6-42-47.3-5.6-4.4-11.6-8-9.5-16.1.5-1.9,2.2-5.1,6.4-5.4l39.8-.6V4.9h0Z" />
  </g>
  <g>
    <path class="st0"
      d="M102,15.9c1.1.7,2.3,1.2,3.5,1.9,23,12.6,35.6,34.3,34.6,61.5,0,1.2-.8,4.3-.6,5.2.4,1.6,4.4,4.1,5.8,5.3.7.6,2.9,2,3.7,3,.2,1.4-2.7,5.4-3.7,7.3s-2.3,4.4-3.3,6.1c-2.6,5-4.2,8.2-6.6,11.5-1,1.7-5.8,10.7-7.7,10.6-1.5.4-5.9-1.3-7.7-1.8-1.6-.4-2.6-1.4-4.7-.7-1.1.3-2.7,2.1-3.4,2.6-15.9,9.9-35,13.5-53.6,8.1-7.8-2.2-13.7-5.9-20.3-10-.7-.4-1.5-1.5-2.4-1.6-1.5-.2-3.9,1.3-5.2,1.8-1.6.6-4.3,1.2-5.9,1.7-2,0-4-5.5-5.2-6.6-3.3-6.4-7-12.2-11.1-19.4-1.1-1.9-4.1-6.6-4.7-8.2-.2-.6.6-1.6,1-2.2s5-4.4,5.8-5.2c.7-.7,1.5-1.7,2.2-2.4.2-4.4-.5-8.8-.3-13.1,1-21.5,14.4-42.3,32.9-52.5,1.8-1,6.9-2.8,7.9-3.8.4-.4.6-.9.7-1.4.7-2.6.8-6.2,1.4-8.8,0-.5.6-1.3,1.1-1.5h39.7c.5,0,1.2,1.1,1.4,1.6.5,1.7.5,3.8.9,5.4.2,1,.8,3.3,1.1,4.1.6,1.5,1.8,1.3,2.6,1.8h0v-.3h0Z" />
    <path
      d="M26.6,124.3c-.5,0-1.4.4-1.8.2-.5-.7-1-1.3-1.3-1.8-4.3-6.9-8.8-14.9-12.8-22-1.1-2-4-5.8-2.9-8l7.3-6.9c0-6.6-.8-13.8.2-20.3,3.1-20.4,17.1-38,35.4-46.8,1.5-.7,3.8-.7,5-2.2l1.9-9.6,1.1-1.1h34.8c.6.2.8.8,1,1.3.6,1.9,1.8,9.5,2.9,10.4s4.1,1.6,5.5,2.3c21.4,10.9,36.1,33.9,34.3,59-.2,3-2.1,6.7.1,9,1.6,1.6,4.9,3.4,6.5,5.2,1.2,1.5.2,2.6-.5,4.1-3.8,7.3-9.4,17-13.8,24-.3.5-2.5,3.7-2.7,3.8-.4,0-1.3,0-2.2-.3-.2,0-.4-.2-.8-.4-1.7-.7-5-1.7-6.6-2s-2.7.2-4,1.1c-1.3.8-2.3,1.8-3.7,2.7-21.1,13.6-47.3,13.5-68.3-.4-1.3-.8-4.7-4-5.8-4.1-.7,0-1.1.4-1.7.5" />
    <path class="st1"
      d="M78.9,33.8c0-.3.7-.8,1.1-.8,1.4,0,5.4.9,6.9,1.3,8.8,2.4,17.7,8.5,23.1,15.8,10.8,14.7,10.8,34.4,1,49.6,0,1.2,6.5,6.4,7.5,7.9.2.3.4.4.2.8l-10.3,10.2-1.1-.4-7.5-7.3c-14.6,9.6-33.6,9.8-48.1,0l-8.5,7.9-10.1-9.7-.3-1.3,17.6-17.7c.6,0,2.8,3.4,3.4,4.1,6.7,7.6,16.4,11.3,26.5,9.7,1.3-.2,9.1-2.2,9.1-3.4l-38.7-38.7c-2.6,4.3-4,10.2-3.8,15.3,0,1.3,1.1,5.4.8,6.1l-10.3,10.2c-.5,0-.8-.5-1-.9-.9-1.5-2.1-5.8-2.5-7.7-4.8-22.4,9-44.9,31.1-50.6,1.2-.3,5.5-1.3,6.4-1.1.3,0,.8.3.8.5v13.2c-2.7,1.1-6,1.4-8.7,2.9-.5.3-1.8.8-1.4,1.6l38.2,38.3c1.1-.2,2.8-5.7,3.1-6.9,4-16.8-6.9-32.7-23.7-35.4l-.9-.7v-12.5h0v-.3h.1Z" />
  </g>
</svg>