<?xml version="1.0" encoding="UTF-8"?>
<svg id="_图层_1" xmlns="http://www.w3.org/2000/svg" version="1.1" viewBox="0 0 350 350">
  <!-- Generator: Adobe Illustrator 29.0.0, SVG Export Plug-In . SVG Version: 2.1.0 Build 186)  -->
  <defs>
    <style>
      .st0, .st1 {
      fill: #fff;
      }

      .st1 {
      stroke: #000;
      stroke-miterlimit: 10;
      stroke-width: 2px;
      }
    </style>
  </defs>
  <path class="st1"
    d="M313.9,222.6l-36.7,63.6c-.3.6-2.2,3.9-4.8,3.8-4.8-.3-11.9-2.9-17.2-4.6-21.6,17.3-49,27.7-78.9,27.7s-58-10.6-79.7-28.3c-.3.1-.6.2-.9.3-3.4,1.2-14.9,6.3-17.2,5.4-1.2-.5-4.7-1.6-5.8-4.7l-36.7-63.6c-.3-.6-2.2-3.9-.9-6,2.7-4.1,8.8-9.1,12.8-12.8,1-.8,2-1.7,3-2.5-.5-4.6-.8-9.3-.8-14,0-52.9,32.5-98.1,78.6-116.9.1-1.3.4-2.8.7-4.4.7-3.6,2-16.1,3.9-17.6,1-.8,3.7-3.2,7-2.7h73.4c.7,0,4.5,0,5.7,2.2,2.2,4.4,3.5,12.2,4.7,17.5.3,1.7.7,3.6,1,5.4,45.6,19,75.1,63.2,77,116.6-.7,15.3.1,16.1.2,16.2,2.8,2.4,12.4,9.6,12.8,12.1.2,1.2,1,4.8-1.2,7.4h0Z">
  </path>
  <path
    d="M309,223.2c-11.2,19.4-22.5,38.8-33.7,58.3-.3.5-2,3.6-4.3,3.5-4.4-.2-11-2.7-15.8-4.1-.5-.2-1-.3-1.5-.5-21,17.3-48,27.7-77.4,27.7s-56.5-10.5-77.6-27.9c-.9.3-1.9.7-2.9,1.1-3.1,1.1-13.4,5.6-15.6,4.8-1-.4-4.3-1.4-5.3-4.3-11.2-19.4-22.5-38.8-33.7-58.3-.3-.5-2.1-3.5-.9-5.5,2.4-3.7,7.8-8.2,11.5-11.6,1.3-1.1,2.6-2.3,3.9-3.4-.7-5.3-1.1-10.8-1.1-16.3,0-51.7,32.4-95.9,78.1-113.3.1-1.3.4-3,.7-4.9.6-3.2,1.8-14.4,3.6-15.8.9-.7,3.4-2.9,6.4-2.4h67.4c.6,0,4.1,0,5.2,2,2,3.9,3.2,10.9,4.3,15.7.4,2,.8,4.2,1.2,6.1,44.7,17.9,75.8,61.6,76.3,112.6.3,36.4.4,19.4-1.5,17.5.5.4,1.2.8,1.7,1.2,2.5,2.1,11.6,8.8,11.9,11.1.2,1.1.9,4.4-1.1,6.7h.2Z">
  </path>
  <path class="st0"
    d="M182.5,102.9c.2-.5,1.5-1.6,2.3-1.6,2.7-.2,10.8,1.8,13.9,2.6,17.6,4.7,35.4,17,46.2,31.7,21.5,29.4,21.6,68.9,1.9,99.2,0,2.5,12.9,12.8,15,15.8.4.6.8.9.4,1.7l-20.7,20.3-2.2-.9-15-14.7c-29.1,19.2-67.3,19.5-96.3,0l-17.1,15.7-20.1-19.4-.5-2.6,35.3-35.4c1.2-.2,5.5,6.8,6.9,8.2,13.5,15.1,32.8,22.5,53,19.3,2.6-.4,18.1-4.5,18.1-6.9l-77.5-77.5c-5.2,8.6-8.1,20.5-7.6,30.6.2,2.6,2.3,10.7,1.7,12.2l-20.6,20.4c-1.1.2-1.6-1.1-2-1.8-1.8-3.1-4.2-11.7-5-15.5-9.6-44.8,18-89.8,62.3-101.1,2.4-.6,11-2.6,12.8-2.3.6,0,1.7.6,1.7,1.1v26.4c-5.5,2.3-12,2.8-17.4,5.7-1.1.5-3.6,1.6-2.7,3.3l76.4,76.5c2.1-.4,5.6-11.3,6.2-13.7,7.9-33.5-13.8-65.4-47.5-70.9l-1.8-1.5v-25.1h.2l-.3.2h0Z">
  </path>
</svg>