<?xml version="1.0" encoding="UTF-8"?>
<svg id="_图层_1" xmlns="http://www.w3.org/2000/svg" version="1.1" viewBox="0 0 286.5 141.2">
  <!-- Generator: Adobe Illustrator 29.0.0, SVG Export Plug-In . SVG Version: 2.1.0 Build 186)  -->
  <defs>
    <style>
      .st0 {
        fill: #fff;
        stroke: #000;
        stroke-miterlimit: 10;
        stroke-width: 2px;
      }
    </style>
  </defs>
  <path class="st0" d="M228.7,92.6h17.6c14.4,0,31.1-17.2,34.8-30.4,15.4-55-59.5-78.5-82.9-34.8-1.3,2.5-4.9,10.8-4.9,13.1v95.6c8.6,1.3,17.6,1.1,26.2,0V48.7c0-.8.9-5.8,1.3-7,4.2-16.1,32.4-15,34.7,1.8,2.1,15.3-3.4,21.8-18.3,23.5-1.6.2-8.6-.6-8.6,1.1v24.4h0Z"/>
  <path class="st0" d="M141.4,112h-43.9v24.8c1.4.4,2.7.7,4.1.8,12,.9,42,1.2,52.7-2.1,17.5-5.4,25.6-24.3,23.4-41.8-2.5-19.1-33.2-33.3-46-44.7-4.9-4.4-8.6-8.5-4.8-15.2.9-1.5,3.6-4.2,6.3-4.2h39.4c.9-3.5,1.7-21.9-.5-23.3-1-.6-2.4-.6-3.6-.7-11.2-.9-40.2-1-50.3,2.2-17.9,5.8-25.9,27.8-19.2,44.8,8.4,21.4,33.6,27.6,46.9,42.3,5.6,6.2,4.2,15.7-4.4,17.2h0Z"/>
  <path class="st0" d="M78.8,4.9c-3.6-.3-7.7-.4-11.4-.3C45.6,4.9,14,1.1,5.5,27.9c-7.2,22.5,5.8,36.7,22.4,49.2,7.2,5.4,39.7,21.9,23.6,32.7-.5.4-2.9,1.7-3.9,1.5H4.5v24.8c1.4.4,2.7.7,4.1.8,12.1.9,41.6,1.2,52.5-2.3,14.8-4.8,22.5-19.9,23-34.8.8-22.6-26.9-35.6-42-47.3-5.6-4.4-11.6-8-9.5-16.1.5-1.9,2.2-5.1,6.4-5.4l39.8-.6V4.9h0Z"/>
</svg>